<svg xmlns="http://www.w3.org/2000/svg" width="900" height="565" viewBox="0 0 900 565" font-family="JetBrains Mono, DejaVu Sans Mono, monospace">
  <rect x="0.5" y="0.5" width="899" height="564" rx="12" fill="#131a16" stroke="#24322a"/>
  <circle cx="24" cy="22" r="6" fill="#c9745c"/>
  <circle cx="44" cy="22" r="6" fill="#d9b36a"/>
  <circle cx="64" cy="22" r="6" fill="#a6e3a1"/>
  <text x="450" y="27" font-size="13" fill="#4f6157" text-anchor="middle">anaidyss@fedora:~ niri</text>
  <line x1="1" y1="42" x2="899" y2="42" stroke="#1d2721"/>

  <rect x="24" y="58" width="52" height="24" rx="12" fill="#d9b36a"/>
  <text x="50" y="75" font-size="14" font-weight="bold" fill="#131a16" text-anchor="middle">~</text>
  <rect x="84" y="58" width="84" height="24" rx="12" fill="#e3c078"/>
  <text x="126" y="75" font-size="14" font-weight="bold" fill="#131a16" text-anchor="middle">main</text>

  <text x="24" y="122" font-size="14" font-weight="bold" fill="#e3c078">❯</text>
  <text x="44" y="122" font-size="14" fill="#cddbd0">figlet anaidyss</text>
  <g font-size="14" fill="#a6e3a1" xml:space="preserve">
    <text x="24" y="146">       _     __</text>
    <text x="24" y="163">  ____ _____  ____ _(_)___/ /_  ____________</text>
    <text x="24" y="180"> / __ `/ __ \/ __ `/ / __  / / / / ___/ ___/</text>
    <text x="24" y="197">/ /_/ / / / / /_/ / / /_/ / /_/ (__  |__  )</text>
    <text x="24" y="214">\__,_/_/ /_/\__,_/_/\__,_/\__, /____/____/</text>
    <text x="24" y="231">                         /____/</text>
  </g>

  <text x="24" y="271" font-size="14" font-weight="bold" fill="#e3c078">❯</text>
  <text x="44" y="271" font-size="14" fill="#cddbd0">whoami</text>
  <text x="24" y="297" font-size="14" fill="#a6e3a1">andrey klein. russia. bauman lyceum + beihang university.</text>

  <text x="24" y="337" font-size="14" font-weight="bold" fill="#e3c078">❯</text>
  <text x="44" y="337" font-size="14" fill="#cddbd0">cat interests</text>
  <text x="24" y="363" font-size="14" fill="#7fb8ad">wayland protocols, compositors, session plumbing.</text>
  <text x="24" y="387" font-size="14" fill="#7fb8ad">python, some c, too much bash.</text>

  <text x="24" y="427" font-size="14" font-weight="bold" fill="#e3c078">❯</text>
  <text x="44" y="427" font-size="14" fill="#cddbd0">ls ~/projects</text>
  <text x="24" y="453" font-size="14" fill="#6fd0b3" font-weight="bold">veil/</text>
  <text x="120" y="453" font-size="14" fill="#4f6157">lockscreen for niri, pure python</text>
  <text x="24" y="477" font-size="14" fill="#6fd0b3" font-weight="bold">kb_macro/</text>
  <text x="120" y="477" font-size="14" fill="#4f6157">keyboard macro recorder, one file</text>
  <text x="24" y="501" font-size="14" fill="#6fd0b3" font-weight="bold">dotfiles/</text>
  <text x="120" y="501" font-size="14" fill="#4f6157">forest-themed configs for everything</text>

  <text x="24" y="541" font-size="14" font-weight="bold" fill="#e3c078">❯</text>
  <rect x="44" y="528" width="9" height="17" fill="#a6e3a1"/>
</svg>
